<svg width="26" height="26" viewBox="0 0 26 26" fill="none" xmlns="http://www.w3.org/2000/svg">
<path d="M11.9165 11.9167V7.58335H14.0832V11.9167H18.4165V14.0834H14.0832V18.4167H11.9165V14.0834H7.58317V11.9167H11.9165ZM12.9998 23.8334C7.01675 23.8334 2.1665 18.9831 2.1665 13C2.1665 7.01693 7.01675 2.16669 12.9998 2.16669C18.9829 2.16669 23.8332 7.01693 23.8332 13C23.8332 18.9831 18.9829 23.8334 12.9998 23.8334ZM12.9998 21.6667C17.7863 21.6667 21.6665 17.7865 21.6665 13C21.6665 8.21355 17.7863 4.33335 12.9998 4.33335C8.21337 4.33335 4.33317 8.21355 4.33317 13C4.33317 17.7865 8.21337 21.6667 12.9998 21.6667Z" fill="#B7B4B4"/>
</svg>
