<svg width="29" height="29" viewBox="0 0 29 29" fill="none" xmlns="http://www.w3.org/2000/svg">
<path d="M4.83317 7.4226V22.9183L10.9531 20.2955L18.2031 23.9205L24.1665 21.3648V5.86902L25.741 5.19424C26.0478 5.0628 26.4029 5.20486 26.5344 5.51156C26.5665 5.58677 26.5832 5.66774 26.5832 5.74956V22.9583L18.1248 26.5833L10.8748 22.9583L3.25866 26.2224C2.95196 26.3539 2.5968 26.2118 2.46536 25.9051C2.43312 25.8299 2.4165 25.7488 2.4165 25.667V8.45831L4.83317 7.4226ZM19.6263 13.5848L14.4998 18.7114L9.37331 13.5848C6.54201 10.7535 6.54201 6.1631 9.37331 3.33179C12.2046 0.500488 16.7951 0.500488 19.6263 3.33179C22.4577 6.1631 22.4577 10.7535 19.6263 13.5848ZM14.4998 15.2937L17.9175 11.876C19.805 9.98846 19.805 6.92816 17.9175 5.04063C16.0299 3.1531 12.9697 3.1531 11.0822 5.04063C9.19462 6.92816 9.19462 9.98846 11.0822 11.876L14.4998 15.2937Z" fill="#B7B4B4"/>
</svg>
