<svg width="27" height="27" viewBox="0 0 27 27" fill="none" xmlns="http://www.w3.org/2000/svg">
<path d="M2.25 10.118C2.25 6.39393 5.26111 3.375 9.00074 3.375H17.9992C21.7276 3.375 24.75 6.40663 24.75 10.118V23.625H9.00074C5.27241 23.625 2.25 20.5933 2.25 16.8821V10.118ZM22.5 21.375V10.118C22.5 7.64481 20.4805 5.625 17.9992 5.625H9.00074C6.50765 5.625 4.5 7.63265 4.5 10.118V16.8821C4.5 19.3552 6.51951 21.375 9.00074 21.375H22.5ZM15.75 12.375H18V14.625H15.75V12.375ZM9 12.375H11.25V14.625H9V12.375Z" fill="#B7B7B7"/>
</svg>
